# xmcd
#
# Track frame offsets: 
#        150
#        12410
#        25610
#        40007
#        51870
#        66392
#        78905
#        91225
#        105722
#        117750
#        131510
#        143170
#        156545
#        167247
#        181525
#        195707
#
# Disc length: 2764 seconds
#
# Revision: 6
# Processed by: cddbd v1.5.2PL0 Copyright (c) Steve Scherf et al.
# Submitted via: ExactAudioCopy v0.99pb5
#
DISCID=ce0aca10
DTITLE=Dolly Parton - CD Diamond Series - 16 Top Tracks
DYEAR=1988
DGENRE=Country
TTITLE0=Jolene
TTITLE1=I will always love you
TTITLE2=Lonely comin' down
TTITLE3=It's my time
TTITLE4=Harper Valley PTA
TTITLE5=Mama say a prayer
TTITLE6=D.I.V.O.R.C.E
TTITLE7=We used to
TTITLE8=Bobby's arms
TTITLE9=The seeker
TTITLE10=Hold me
TTITLE11=Here you come again
TTITLE12=Lovin' you
TTITLE13=Sweet music man
TTITLE14=I really got the feeling
TTITLE15=Baby I'm burnin'
EXTD=
EXTT0=
EXTT1=
EXTT2=
EXTT3=
EXTT4=
EXTT5=
EXTT6=
EXTT7=
EXTT8=
EXTT9=
EXTT10=
EXTT11=
EXTT12=
EXTT13=
EXTT14=
EXTT15=
PLAYORDER=
